<svg display="none" xmlns="http://www.w3.org/2000/svg">
    <defs>
        <symbol xmlns="http://www.w3.org/2000/svg" viewBox="0 0 64 64" id="basic_elaboration_todolist_2">
            <path fill="none" stroke-width="3" stroke-miterlimit="10" d="M23 8H10v55h44V8H41"></path>
            <path fill="none" stroke-width="2" stroke-miterlimit="10" d="M36 5V1h-8v4h-4l-2 8h20l-2-8zm-22 8h36v46H14z"></path>
        </symbol>
        <symbol xmlns="http://www.w3.org/2000/svg" viewBox="0 0 64 64" id="basic_message">
            <path fill="none" stroke-width="3" stroke-miterlimit="10" d="M32 47h31V5H1v42h17v12z"></path>
        </symbol>
        <symbol xmlns="http://www.w3.org/2000/svg" viewBox="0 0 64 64" id="basic_postcard">
            <path fill="none" stroke-width="3" stroke-miterlimit="10" d="M1 13h62v41H1z"></path>
            <path fill="none" stroke-width="3" stroke-miterlimit="10" d="M49 19h8v10h-8zm-10-1v31M6 21h28M6 27h24M6 33h26"></path>
        </symbol>
        <symbol version="1" xmlns="http://www.w3.org/2000/svg" viewBox="0 0 64 64" id="ecommerce_cart">
            <circle fill="none" stroke-width="3" stroke-miterlimit="10" cx="20" cy="57" r="6"></circle>
            <circle fill="none" stroke-width="3" stroke-miterlimit="10" cx="44" cy="57" r="6"></circle>
            <path fill="none" stroke-width="3" stroke-miterlimit="10" d="M26 57h12m-24 0L10 2H0m13 41l43-3 7-30H11m9 0l2-6h10l2 6"></path>
            <path fill="none" stroke-width="3" stroke-miterlimit="10" d="M32 4l5-3h16l3 9"></path>
        </symbol>
        <symbol xmlns="http://www.w3.org/2000/svg" viewBox="0 0 64 64" id="arrows_question">
            <path fill="none" stroke-width="5" stroke-miterlimit="20" d="M53.92 10.081c12.107 12.105 12.107 31.732 0 43.838-12.106 12.108-31.734 12.108-43.84 0-12.107-12.105-12.107-31.732 0-43.838 12.106-12.108 31.733-12.108 43.84 0z"></path>
            <path stroke-width="5" stroke-miterlimit="20" d="M30 43v4"></path>
            <path fill="none" stroke-width="5" stroke-miterlimit="20" d="M24 21c0-3 2-5 8-5 5 0 8 3 8 7s-6 7-6 7-4 2-4 8v1"></path>
        </symbol>
    </defs>
</svg>
